<?xml version="1.0" encoding="UTF-8" standalone="no"?>
<svg
        id="Layer_1"
        data-name="Layer 1"
        viewBox="0 0 318.04003 432.98"
        version="1.1"
        width="318.04001"
        height="432.98001"
        xmlns="http://www.w3.org/2000/svg"
        xmlns:svg="http://www.w3.org/2000/svg"
>
    <defs
            id="defs4">
        <style
                id="style2">.cls-1{fill:#1d1d1b;}
        </style>
    </defs>
    <title
            id="title6">Prosopo Logo Black
    </title>
    <path
            d="m 119.79,50.5 a 147.75,147.75 0 0 1 147.75,147.75 h 50.5 C 318.04,88.76 229.28,0 119.79,0 Z"
            id="path8"
            style="fill:#ffffff;fill-opacity:1"/>
    <path
            class="cls-1"
            d="m 53.6,116.7 a 147.74,147.74 0 0 1 147.74,147.74 h 50.5 C 251.84,154.95 163.09,66.2 53.6,66.2 Z"
            id="path10"
            style="fill:#ffffff;fill-opacity:1"/>
    <path
            class="cls-1"
            d="M 198.24,382.48 A 147.75,147.75 0 0 1 50.5,234.74 H 0 c 0,109.49 88.75,198.24 198.24,198.24 z"
            id="path12"
            style="fill:#ffffff;fill-opacity:1"/>
    <path
            class="cls-1"
            d="M 264.41,316.31 A 147.74,147.74 0 0 1 116.67,168.56 H 66.16 c 0,109.49 88.76,198.25 198.25,198.25 z"
            id="path14"
            style="fill:#ffffff;fill-opacity:1"/>
</svg>
