<?xml version="1.0" encoding="UTF-8" standalone="no"?>
<svg
        id="Layer_1"
        data-name="Layer 1"
        viewBox="0 0 440.00003 439.99999"
        version="1.1"

        width="440"
        height="440"
        xmlns:xlink="http://www.w3.org/1999/xlink"
        xmlns="http://www.w3.org/2000/svg"
        xmlns:svg="http://www.w3.org/2000/svg"
>
    <metadata
            id="metadata33">
    </metadata>
    <defs
            id="defs4">
        <linearGradient
                id="linearGradient23552">
            <stop
                    style="stop-color:#594cda;stop-opacity:1"
                    offset="0"
                    id="stop23548"/>
            <stop
                    style="stop-color:#000000;stop-opacity:1"
                    offset="1"
                    id="stop23550"/>
        </linearGradient>
        <style
                id="style2">.cls-1{fill:#1d1d1b;}
        </style>
        <radialGradient
                xlink:href="#linearGradient23552"
                id="radialGradient23556"
                cx="216.49001"
                cy="216.49001"
                fx="216.49001"
                fy="216.49001"
                r="220"
                gradientUnits="userSpaceOnUse"
                gradientTransform="matrix(1.1146771,0,0,1.1146771,-24.82644,-24.82644)"/>
    </defs>
    <title
            id="title6">Prosopo Logo Black
    </title>
    <g
            id="g1361"
            transform="translate(3.5099945,3.5099945)">
        <circle
                style="fill:url(#radialGradient23556);fill-opacity:1;fill-rule:evenodd"
                id="path937"
                cx="216.49001"
                cy="216.49001"
                r="220"/>
        <g
                id="g867"
                transform="translate(57.470005)">
            <path
                    class="cls-1"
                    d="m 119.79,50.5 a 147.75,147.75 0 0 1 147.75,147.75 h 50.5 C 318.04,88.76 229.28,0 119.79,0 Z"
                    id="path8"
                    style="fill:#ffffff;fill-opacity:1"/>
            <path
                    class="cls-1"
                    d="m 53.6,116.7 a 147.74,147.74 0 0 1 147.74,147.74 h 50.5 C 251.84,154.95 163.09,66.2 53.6,66.2 Z"
                    id="path10"
                    style="fill:#ffffff;fill-opacity:1"/>
            <path
                    class="cls-1"
                    d="M 198.24,382.48 A 147.75,147.75 0 0 1 50.5,234.74 H 0 c 0,109.49 88.75,198.24 198.24,198.24 z"
                    id="path12"
                    style="fill:#ffffff;fill-opacity:1"/>
            <path
                    class="cls-1"
                    d="M 264.41,316.31 A 147.74,147.74 0 0 1 116.67,168.56 H 66.16 c 0,109.49 88.76,198.25 198.25,198.25 z"
                    id="path14"
                    style="fill:#ffffff;fill-opacity:1"/>
        </g>
    </g>
</svg>
